# xmcd CD database file
#
# Track frame offsets:
#	183
#	13083
#	23673
#	38898
#	51553
#	62595
#	74713
#	85538
#	101813
#	114368
#	124438
#	135888
#	148738
#	159008
#	170423
#	181058
#	190773
#	201838
#	214273
#	228305
#	241858
#	250288
#	258933
#	270173
#	281948
#	293203
#	303438
#	317413
#
# Disc length: 4376 seconds
#
# Revision: 1
# Processed by: cddbd v1.4PL0 Copyright (c) Steve Scherf et al.
# Submitted via: CDex 1.50beta9
#
DISCID=8f11161c
DTITLE=Various Artist - The Best Of The Irish Showbands
DYEAR=1900
DGENRE=Country
TTITLE0=If I Could Choose
TTITLE1=I Love You More And More Everyday
TTITLE2=Every Step Of The Way
TTITLE3=Distant Drums
TTITLE4=The Pillow That Whispers
TTITLE5=The Answer To Everything
TTITLE6=Simon Says
TTITLE7=Unchained Melody
TTITLE8=Twenty Flight Rock
TTITLE9=The House With The Whitewashed Gable
TTITLE10=Too Soon To Know
TTITLE11=Does He Mean That Much To You
TTITLE12=(I'd Be) A Legend In My Time
TTITLE13=Don't You Believe It
TTITLE14=My Own Peculiar Way
TTITLE15=Are You Teasing Me
TTITLE16=Walking The Streets In The Rain
TTITLE17=Aching Breaking Heart
TTITLE18=From The Candy Store On The Corner
TTITLE19=We Could
TTITLE20=She Wears My Ring
TTITLE21=Georgie Porgie
TTITLE22=Wonderful World Of My Dreams
TTITLE23=No One Will Ever Know
TTITLE24=Little Arrows
TTITLE25=Born To Be With You
TTITLE26=I Gave My Wedding Dress Away
TTITLE27=Streets Of Baltimore
EXTD=
EXTT0=
EXTT1=
EXTT2=
EXTT3=
EXTT4=
EXTT5=
EXTT6=
EXTT7=
EXTT8=
EXTT9=
EXTT10=
EXTT11=
EXTT12=
EXTT13=
EXTT14=
EXTT15=
EXTT16=
EXTT17=
EXTT18=
EXTT19=
EXTT20=
EXTT21=
EXTT22=
EXTT23=
EXTT24=
EXTT25=
EXTT26=
EXTT27=
PLAYORDER=
